<svg xmlns="http://www.w3.org/2000/svg" width="600" height="400" viewBox="0 0 600 400"><rect width="100%" height="100%" fill="#DDDDDD"/><path fill="#999999" d="M148.16 206.095q.57 0 1.01.45l2.76 2.99q-2.29 2.83-5.63 4.34t-8.02 1.51q-4.19 0-7.53-1.43t-5.7-3.98q-2.37-2.55-3.63-6.09-1.26-3.53-1.26-7.72 0-4.24 1.35-7.76t3.81-6.07 5.86-3.97q3.41-1.41 7.54-1.41 4.11 0 7.29 1.35 3.19 1.35 5.43 3.54l-2.34 3.25q-.21.31-.54.54-.32.24-.89.24-.39 0-.81-.23-.42-.22-.91-.54-.49-.33-1.14-.72t-1.51-.71q-.86-.33-1.99-.55t-2.61-.22q-2.53 0-4.62.9t-3.6 2.6-2.34 4.16-.83 5.6q0 3.17.89 5.64.9 2.47 2.44 4.16 1.53 1.69 3.61 2.59t4.47.9q1.43 0 2.59-.16 1.16-.15 2.13-.49.98-.34 1.85-.87.87-.54 1.73-1.32.26-.23.54-.37.29-.15.6-.15m7.77-17.81h6.45v26.68h-6.45zm7.34-7.77q0 .83-.34 1.56t-.9 1.27q-.56.55-1.31.87-.76.33-1.61.33-.84 0-1.58-.33-.74-.32-1.28-.87-.55-.54-.88-1.27-.32-.73-.32-1.56 0-.86.32-1.61.33-.76.88-1.3.54-.55 1.28-.87.74-.33 1.58-.33.85 0 1.61.33.75.32 1.31.87.56.54.9 1.3.34.75.34 1.61m24.64 7.77h5.07l-10.58 26.68h-5.82L166 188.285h5.3q.73 0 1.21.34t.64.86l5.14 14.25q.42 1.25.73 2.44.31 1.2.55 2.39.26-1.19.57-2.39.31-1.19.75-2.44l5.26-14.25q.18-.52.65-.86.46-.34 1.11-.34m8.69 0h6.45v26.68h-6.45zm7.33-7.77q0 .83-.34 1.56t-.9 1.27q-.55.55-1.31.87-.75.33-1.61.33-.83 0-1.57-.33-.74-.32-1.29-.87-.55-.54-.87-1.27-.33-.73-.33-1.56 0-.86.33-1.61.32-.76.87-1.3.55-.55 1.29-.87.74-.33 1.57-.33.86 0 1.61.33.76.32 1.31.87.56.54.9 1.3.34.75.34 1.61m26.47 11.08-1.69 2.34q-.29.36-.56.57t-.79.21q-.5 0-.97-.3-.46-.3-1.11-.68t-1.55-.68q-.9-.29-2.22-.29-1.69 0-2.97.61-1.27.61-2.12 1.75-.84 1.15-1.26 2.77-.41 1.63-.41 3.68 0 2.13.45 3.8.46 1.66 1.31 2.79.86 1.13 2.08 1.72 1.23.58 2.76.58t2.48-.38q.95-.37 1.6-.83.65-.45 1.13-.83t1.08-.38q.78 0 1.17.6l1.85 2.34q-1.07 1.25-2.32 2.09-1.24.85-2.58 1.36-1.34.5-2.76.71t-2.82.21q-2.47 0-4.65-.92-2.19-.93-3.83-2.69-1.63-1.77-2.58-4.33t-.95-5.84q0-2.94.84-5.45.85-2.51 2.49-4.34 1.63-1.83 4.05-2.87t5.57-1.04q2.99 0 5.23.96 2.25.96 4.05 2.76m36.03 3.74 12.43 19.63h-6.97q-.72 0-1.15-.36-.43-.37-.69-.84l-8.71-14.43q-.21.65-.5 1.12l-8.34 13.31q-.31.45-.72.82-.4.38-1.05.38h-6.53l12.48-19.34-11.98-18.26h6.97q.72 0 1.05.2.32.19.61.64l8.55 13.78q.26-.65.63-1.3l7.85-12.35q.29-.5.62-.73.34-.24.86-.24h6.68zm51.15-14.43-1.75 3.3q-.31.55-.66.79-.35.25-.87.25-.55 0-1.18-.4-.64-.4-1.52-.9-.89-.49-2.07-.9-1.18-.4-2.8-.4-1.45 0-2.54.35-1.1.35-1.84.98-.74.62-1.1 1.49-.37.87-.37 1.91 0 1.33.74 2.21.75.89 1.97 1.51 1.22.63 2.78 1.12t3.2 1.05 3.2 1.3 2.78 1.87q1.22 1.14 1.96 2.77.74 1.64.74 3.98 0 2.55-.87 4.77-.87 2.23-2.55 3.88-1.67 1.65-4.09 2.6t-5.54.95q-1.79 0-3.54-.35-1.74-.36-3.34-1.01t-3-1.56-2.5-2.02l2.06-3.36q.26-.36.67-.61.42-.25.89-.25.65 0 1.4.54.76.53 1.8 1.18t2.43 1.18q1.39.54 3.34.54 2.99 0 4.63-1.42 1.63-1.42 1.63-4.07 0-1.48-.74-2.42-.74-.93-1.96-1.57t-2.78-1.08-3.17-.96q-1.62-.52-3.18-1.25t-2.78-1.9-1.96-2.92q-.74-1.76-.74-4.33 0-2.06.82-4.01t2.38-3.45q1.56-1.51 3.84-2.42 2.29-.91 5.26-.91 3.32 0 6.13 1.04t4.79 2.91m24.83 7.38h5.14l-14.53 34.01q-.29.68-.74 1.03-.46.35-1.39.35h-4.79l5-10.71-10.79-24.68h5.64q.75 0 1.18.37.43.36.64.83l5.67 13.83q.28.7.48 1.41.19.7.37 1.43.24-.73.47-1.45.24-.71.52-1.41l5.36-13.81q.21-.52.69-.86t1.08-.34m8.42-11.96h6.42v38.64h-6.42zm12.92 0h6.42v38.64h-6.42zm26.94 31.75v-4.5q-2.78.13-4.68.48t-3.04.9q-1.15.55-1.64 1.27-.5.73-.5 1.59 0 1.69 1 2.42 1.01.73 2.62.73 1.97 0 3.42-.72 1.44-.71 2.82-2.17m-13.57-14.01-1.15-2.06q4.6-4.21 11.08-4.21 2.34 0 4.18.77 1.85.76 3.12 2.13 1.28 1.36 1.94 3.26t.66 4.16v16.85h-2.91q-.91 0-1.4-.27-.5-.28-.78-1.11l-.57-1.92q-1.02.91-1.98 1.6t-2 1.15q-1.04.47-2.23.72-1.18.25-2.61.25-1.69 0-3.12-.46-1.43-.45-2.47-1.36t-1.61-2.27q-.57-1.35-.57-3.14 0-1.02.34-2.02.33-1 1.1-1.91t1.99-1.71q1.22-.81 3-1.41t4.15-.97q2.37-.38 5.41-.46v-1.56q0-2.68-1.15-3.96-1.14-1.29-3.3-1.29-1.56 0-2.59.36-1.02.37-1.8.82-.78.46-1.42.82-.64.37-1.42.37-.67 0-1.14-.36-.47-.35-.75-.81m32.29 2.02v11.96q1.09 1.33 2.38 1.88 1.28.54 2.71.54 1.49 0 2.67-.53t2.01-1.67q.84-1.13 1.28-2.88.44-1.76.44-4.2 0-4.39-1.46-6.36-1.45-1.96-4.18-1.96-1.85 0-3.23.84-1.37.85-2.62 2.38m0-19.76v15.24q1.61-1.69 3.57-2.69 1.97-1 4.49-1 2.31 0 4.17.91t3.17 2.61q1.32 1.7 2.02 4.12t.7 5.44q0 3.25-.81 5.9-.8 2.65-2.3 4.53-1.49 1.89-3.6 2.93-2.1 1.04-4.68 1.04-1.25 0-2.26-.25-1.01-.24-1.87-.69-.86-.44-1.58-1.08-.71-.63-1.36-1.41l-.29 1.79q-.15.68-.53.96-.38.29-1.03.29h-4.23v-38.64zm39.65 11.96h6.42v26.68h-3.93q-1.27 0-1.61-1.17l-.44-2.13q-1.64 1.66-3.61 2.69-1.98 1.03-4.66 1.03-2.18 0-3.86-.75-1.68-.74-2.82-2.09t-1.73-3.21q-.58-1.86-.58-4.09v-16.96h6.42v16.96q0 2.44 1.13 3.78t3.39 1.34q1.67 0 3.12-.74 1.46-.74 2.76-2.04zm30.5 2.89-1.46 2.31q-.26.42-.55.59-.28.17-.72.17-.47 0-1.01-.26-.53-.26-1.23-.59-.7-.32-1.6-.58t-2.12-.26q-1.9 0-2.98.8-1.07.81-1.07 2.11 0 .86.55 1.44.56.59 1.49 1.03.92.44 2.09.79t2.38.77 2.38.95 2.09 1.35 1.48 1.96q.56 1.15.56 2.76 0 1.92-.69 3.55-.69 1.62-2.04 2.81-1.35 1.18-3.34 1.84-1.99.67-4.59.67-1.38 0-2.69-.25t-2.52-.69-2.24-1.04q-1.02-.6-1.8-1.3l1.48-2.44q.28-.45.67-.68t.99-.23 1.13.33q.54.34 1.24.73t1.65.73 2.4.34q1.15 0 1.97-.28.82-.27 1.35-.71t.78-1.03q.25-.58.25-1.21 0-.93-.56-1.53t-1.49-1.04q-.92-.44-2.1-.79t-2.42-.77q-1.23-.42-2.42-.98-1.18-.55-2.1-1.41-.93-.86-1.49-2.11-.55-1.25-.55-3.01 0-1.64.65-3.12.65-1.49 1.91-2.59 1.26-1.11 3.14-1.77 1.89-.66 4.36-.66 2.75 0 5.02.91 2.26.91 3.77 2.39"/></svg>