<svg xmlns="http://www.w3.org/2000/svg" xmlns:xlink="http://www.w3.org/1999/xlink" width="500" zoomAndPan="magnify" viewBox="0 0 375 374.999991" height="500" preserveAspectRatio="xMidYMid meet" version="1.0"><defs><g/></defs><rect x="-37.5" width="450" fill="#ffffff" y="-37.499999" height="449.999989" fill-opacity="1"/><rect x="-37.5" width="450" fill="#ffffff" y="-37.499999" height="449.999989" fill-opacity="1"/><g fill="#004aad" fill-opacity="1"><g transform="translate(53.466798, 195.2353)"><g><path d="M 37.46875 -43.09375 C 33.71875 -43.09375 30.488281 -41.703125 27.78125 -38.921875 C 25.082031 -36.148438 23.734375 -32.8125 23.734375 -28.90625 C 23.734375 -24.9375 25.082031 -21.5625 27.78125 -18.78125 C 30.488281 -16.007812 33.71875 -14.625 37.46875 -14.625 C 39.257812 -14.625 40.960938 -14.847656 42.578125 -15.296875 C 44.191406 -15.742188 45.375 -16.195312 46.125 -16.65625 L 47.140625 -17.328125 L 53.890625 -3.484375 C 53.359375 -3.109375 52.625 -2.640625 51.6875 -2.078125 C 50.75 -1.515625 48.613281 -0.75 45.28125 0.21875 C 41.945312 1.195312 38.363281 1.6875 34.53125 1.6875 C 26.0625 1.6875 18.617188 -1.289062 12.203125 -7.25 C 5.796875 -13.21875 2.59375 -20.363281 2.59375 -28.6875 C 2.59375 -37.082031 5.796875 -44.300781 12.203125 -50.34375 C 18.617188 -56.382812 26.0625 -59.40625 34.53125 -59.40625 C 38.363281 -59.40625 41.890625 -58.953125 45.109375 -58.046875 C 48.335938 -57.148438 50.625 -56.25 51.96875 -55.34375 L 53.890625 -54 L 47.140625 -40.390625 C 44.660156 -42.191406 41.4375 -43.09375 37.46875 -43.09375 Z M 37.46875 -43.09375 "/></g></g></g><g fill="#004aad" fill-opacity="1"><g transform="translate(105.891735, 195.2353)"><g><path d="M 8.65625 -89.890625 C 10.988281 -92.210938 13.765625 -93.375 16.984375 -93.375 C 20.210938 -93.375 22.988281 -92.210938 25.3125 -89.890625 C 27.632812 -87.566406 28.796875 -84.789062 28.796875 -81.5625 C 28.796875 -78.332031 27.632812 -75.554688 25.3125 -73.234375 C 22.988281 -70.910156 20.210938 -69.75 16.984375 -69.75 C 13.765625 -69.75 10.988281 -70.910156 8.65625 -73.234375 C 6.332031 -75.554688 5.171875 -78.332031 5.171875 -81.5625 C 5.171875 -84.789062 6.332031 -87.566406 8.65625 -89.890625 Z M 6.75 -57.71875 L 6.75 0 L 26.65625 0 L 26.65625 -57.71875 Z M 6.75 -57.71875 "/></g></g></g><g fill="#004aad" fill-opacity="1"><g transform="translate(137.054196, 195.2353)"><g><path d="M 21.375 -57.71875 L 35.4375 -26.328125 L 49.5 -57.71875 L 73.125 -57.71875 L 42.1875 0 L 28.6875 0 L -2.25 -57.71875 Z M 21.375 -57.71875 "/></g></g></g><g fill="#004aad" fill-opacity="1"><g transform="translate(205.116626, 195.2353)"><g><path d="M 8.65625 -89.890625 C 10.988281 -92.210938 13.765625 -93.375 16.984375 -93.375 C 20.210938 -93.375 22.988281 -92.210938 25.3125 -89.890625 C 27.632812 -87.566406 28.796875 -84.789062 28.796875 -81.5625 C 28.796875 -78.332031 27.632812 -75.554688 25.3125 -73.234375 C 22.988281 -70.910156 20.210938 -69.75 16.984375 -69.75 C 13.765625 -69.75 10.988281 -70.910156 8.65625 -73.234375 C 6.332031 -75.554688 5.171875 -78.332031 5.171875 -81.5625 C 5.171875 -84.789062 6.332031 -87.566406 8.65625 -89.890625 Z M 6.75 -57.71875 L 6.75 0 L 26.65625 0 L 26.65625 -57.71875 Z M 6.75 -57.71875 "/></g></g></g><g fill="#004aad" fill-opacity="1"><g transform="translate(236.279086, 195.2353)"><g><path d="M 37.46875 -43.09375 C 33.71875 -43.09375 30.488281 -41.703125 27.78125 -38.921875 C 25.082031 -36.148438 23.734375 -32.8125 23.734375 -28.90625 C 23.734375 -24.9375 25.082031 -21.5625 27.78125 -18.78125 C 30.488281 -16.007812 33.71875 -14.625 37.46875 -14.625 C 39.257812 -14.625 40.960938 -14.847656 42.578125 -15.296875 C 44.191406 -15.742188 45.375 -16.195312 46.125 -16.65625 L 47.140625 -17.328125 L 53.890625 -3.484375 C 53.359375 -3.109375 52.625 -2.640625 51.6875 -2.078125 C 50.75 -1.515625 48.613281 -0.75 45.28125 0.21875 C 41.945312 1.195312 38.363281 1.6875 34.53125 1.6875 C 26.0625 1.6875 18.617188 -1.289062 12.203125 -7.25 C 5.796875 -13.21875 2.59375 -20.363281 2.59375 -28.6875 C 2.59375 -37.082031 5.796875 -44.300781 12.203125 -50.34375 C 18.617188 -56.382812 26.0625 -59.40625 34.53125 -59.40625 C 38.363281 -59.40625 41.890625 -58.953125 45.109375 -58.046875 C 48.335938 -57.148438 50.625 -56.25 51.96875 -55.34375 L 53.890625 -54 L 47.140625 -40.390625 C 44.660156 -42.191406 41.4375 -43.09375 37.46875 -43.09375 Z M 37.46875 -43.09375 "/></g></g></g><g fill="#000000" fill-opacity="1"><g transform="translate(126.98087, 222.641822)"><g><path d="M 4.375 0.1875 C 3.59375 0.1875 2.921875 0.0546875 2.359375 -0.203125 C 1.796875 -0.460938 1.359375 -0.828125 1.046875 -1.296875 C 0.742188 -1.773438 0.59375 -2.332031 0.59375 -2.96875 L 2.671875 -2.96875 C 2.671875 -2.53125 2.820312 -2.1875 3.125 -1.9375 C 3.4375 -1.6875 3.847656 -1.5625 4.359375 -1.5625 C 4.804688 -1.5625 5.15625 -1.644531 5.40625 -1.8125 C 5.664062 -1.988281 5.796875 -2.234375 5.796875 -2.546875 C 5.796875 -2.878906 5.640625 -3.144531 5.328125 -3.34375 C 5.023438 -3.550781 4.546875 -3.726562 3.890625 -3.875 C 2.785156 -4.101562 1.972656 -4.453125 1.453125 -4.921875 C 0.929688 -5.390625 0.671875 -6.003906 0.671875 -6.765625 C 0.671875 -7.617188 0.976562 -8.289062 1.59375 -8.78125 C 2.21875 -9.28125 3.070312 -9.53125 4.15625 -9.53125 C 4.882812 -9.53125 5.519531 -9.398438 6.0625 -9.140625 C 6.613281 -8.890625 7.035156 -8.535156 7.328125 -8.078125 C 7.628906 -7.617188 7.78125 -7.070312 7.78125 -6.4375 L 5.734375 -6.4375 C 5.734375 -6.863281 5.59375 -7.195312 5.3125 -7.4375 C 5.039062 -7.675781 4.660156 -7.796875 4.171875 -7.796875 C 3.734375 -7.796875 3.382812 -7.707031 3.125 -7.53125 C 2.863281 -7.351562 2.734375 -7.113281 2.734375 -6.8125 C 2.734375 -6.519531 2.875 -6.273438 3.15625 -6.078125 C 3.445312 -5.890625 3.945312 -5.707031 4.65625 -5.53125 C 5.820312 -5.257812 6.660156 -4.890625 7.171875 -4.421875 C 7.691406 -3.960938 7.953125 -3.363281 7.953125 -2.625 C 7.953125 -1.75 7.632812 -1.0625 7 -0.5625 C 6.363281 -0.0625 5.488281 0.1875 4.375 0.1875 Z M 4.375 0.1875 "/></g></g></g><g fill="#000000" fill-opacity="1"><g transform="translate(138.678831, 222.641822)"><g><path d="M 3.5625 0 L 3.5625 -3.265625 L 0.125 -9.34375 L 2.53125 -9.34375 L 3.703125 -7.171875 L 4.625 -5.484375 L 5.546875 -7.171875 L 6.703125 -9.34375 L 9.109375 -9.34375 L 5.6875 -3.296875 L 5.6875 0 Z M 3.5625 0 "/></g></g></g><g fill="#000000" fill-opacity="1"><g transform="translate(151.056926, 222.641822)"><g><path d="M 1.125 0 L 1.125 -9.34375 L 3.25 -9.34375 L 3.25 -1.984375 L 7.328125 -1.984375 L 7.328125 0 Z M 1.125 0 "/></g></g></g><g fill="#000000" fill-opacity="1"><g transform="translate(161.888054, 222.641822)"><g><path d="M 1.125 0 L 1.125 -9.34375 L 3.25 -9.34375 L 3.25 -1.984375 L 7.328125 -1.984375 L 7.328125 0 Z M 1.125 0 "/></g></g></g><g fill="#000000" fill-opacity="1"><g transform="translate(172.719183, 222.641822)"><g><path d="M 0.125 0 L 3.828125 -9.34375 L 5.90625 -9.34375 L 9.625 0 L 7.359375 0 L 6.71875 -1.609375 L 3.015625 -1.609375 L 2.390625 0 Z M 3.5625 -3.28125 L 6.1875 -3.28125 L 4.875 -6.703125 Z M 3.5625 -3.28125 "/></g></g></g><g fill="#000000" fill-opacity="1"><g transform="translate(185.604045, 222.641822)"><g><path d="M 1.125 0 L 1.125 -9.34375 L 5.296875 -9.34375 C 6.242188 -9.34375 7 -9.113281 7.5625 -8.65625 C 8.125 -8.207031 8.40625 -7.597656 8.40625 -6.828125 C 8.40625 -6.390625 8.304688 -5.992188 8.109375 -5.640625 C 7.910156 -5.285156 7.632812 -5.003906 7.28125 -4.796875 C 7.726562 -4.609375 8.070312 -4.320312 8.3125 -3.9375 C 8.5625 -3.550781 8.6875 -3.109375 8.6875 -2.609375 C 8.6875 -2.085938 8.550781 -1.628906 8.28125 -1.234375 C 8.019531 -0.847656 7.648438 -0.546875 7.171875 -0.328125 C 6.691406 -0.109375 6.140625 0 5.515625 0 Z M 3.21875 -1.6875 L 5.1875 -1.6875 C 5.601562 -1.6875 5.925781 -1.78125 6.15625 -1.96875 C 6.394531 -2.164062 6.515625 -2.441406 6.515625 -2.796875 C 6.515625 -3.160156 6.394531 -3.4375 6.15625 -3.625 C 5.925781 -3.820312 5.601562 -3.921875 5.1875 -3.921875 L 3.21875 -3.921875 Z M 3.21875 -5.53125 L 4.984375 -5.53125 C 5.390625 -5.53125 5.703125 -5.625 5.921875 -5.8125 C 6.140625 -6 6.25 -6.265625 6.25 -6.609375 C 6.25 -6.941406 6.140625 -7.195312 5.921875 -7.375 C 5.703125 -7.5625 5.390625 -7.65625 4.984375 -7.65625 L 3.21875 -7.65625 Z M 3.21875 -5.53125 "/></g></g></g><g fill="#000000" fill-opacity="1"><g transform="translate(197.942131, 222.641822)"><g><path d="M 4.9375 0.1875 C 4.125 0.1875 3.425781 0.0234375 2.84375 -0.296875 C 2.257812 -0.617188 1.8125 -1.082031 1.5 -1.6875 C 1.1875 -2.289062 1.03125 -3.007812 1.03125 -3.84375 L 1.03125 -9.34375 L 3.15625 -9.34375 L 3.15625 -3.984375 C 3.15625 -2.546875 3.75 -1.828125 4.9375 -1.828125 C 6.125 -1.828125 6.71875 -2.546875 6.71875 -3.984375 L 6.71875 -9.34375 L 8.84375 -9.34375 L 8.84375 -3.84375 C 8.84375 -3.007812 8.6875 -2.289062 8.375 -1.6875 C 8.0625 -1.082031 7.613281 -0.617188 7.03125 -0.296875 C 6.445312 0.0234375 5.75 0.1875 4.9375 0.1875 Z M 4.9375 0.1875 "/></g></g></g><g fill="#000000" fill-opacity="1"><g transform="translate(210.960351, 222.641822)"><g><path d="M 4.375 0.1875 C 3.59375 0.1875 2.921875 0.0546875 2.359375 -0.203125 C 1.796875 -0.460938 1.359375 -0.828125 1.046875 -1.296875 C 0.742188 -1.773438 0.59375 -2.332031 0.59375 -2.96875 L 2.671875 -2.96875 C 2.671875 -2.53125 2.820312 -2.1875 3.125 -1.9375 C 3.4375 -1.6875 3.847656 -1.5625 4.359375 -1.5625 C 4.804688 -1.5625 5.15625 -1.644531 5.40625 -1.8125 C 5.664062 -1.988281 5.796875 -2.234375 5.796875 -2.546875 C 5.796875 -2.878906 5.640625 -3.144531 5.328125 -3.34375 C 5.023438 -3.550781 4.546875 -3.726562 3.890625 -3.875 C 2.785156 -4.101562 1.972656 -4.453125 1.453125 -4.921875 C 0.929688 -5.390625 0.671875 -6.003906 0.671875 -6.765625 C 0.671875 -7.617188 0.976562 -8.289062 1.59375 -8.78125 C 2.21875 -9.28125 3.070312 -9.53125 4.15625 -9.53125 C 4.882812 -9.53125 5.519531 -9.398438 6.0625 -9.140625 C 6.613281 -8.890625 7.035156 -8.535156 7.328125 -8.078125 C 7.628906 -7.617188 7.78125 -7.070312 7.78125 -6.4375 L 5.734375 -6.4375 C 5.734375 -6.863281 5.59375 -7.195312 5.3125 -7.4375 C 5.039062 -7.675781 4.660156 -7.796875 4.171875 -7.796875 C 3.734375 -7.796875 3.382812 -7.707031 3.125 -7.53125 C 2.863281 -7.351562 2.734375 -7.113281 2.734375 -6.8125 C 2.734375 -6.519531 2.875 -6.273438 3.15625 -6.078125 C 3.445312 -5.890625 3.945312 -5.707031 4.65625 -5.53125 C 5.820312 -5.257812 6.660156 -4.890625 7.171875 -4.421875 C 7.691406 -3.960938 7.953125 -3.363281 7.953125 -2.625 C 7.953125 -1.75 7.632812 -1.0625 7 -0.5625 C 6.363281 -0.0625 5.488281 0.1875 4.375 0.1875 Z M 4.375 0.1875 "/></g></g></g><g fill="#000000" fill-opacity="1"><g transform="translate(299.582183, 148.25003)"><g><path d="M 32.703125 0 L 22 0 L 16.34375 -7.25 L 10.703125 0 L 0 0 L 10.953125 -13.40625 L 1.546875 -25.65625 L 11.90625 -25.65625 L 16.34375 -19.703125 L 20.796875 -25.65625 L 31.15625 -25.65625 L 21.75 -13.40625 Z M 32.703125 0 "/></g></g></g></svg>