<svg width="1200" height="1200" viewBox="0 0 1200 1200" fill="none" xmlns="http://www.w3.org/2000/svg">
<mask id="mask0_409_3640" style="mask-type:alpha" maskUnits="userSpaceOnUse" x="0" y="0" width="1197" height="1197">
<circle cx="598.033" cy="598.033" r="598.033" fill="#D9D9D9"/>
</mask>
<g mask="url(#mask0_409_3640)">
<path d="M1130.2 330.588C1368.24 789.02 949.804 1306.27 450.981 1180C227.059 1124.31 47.0589 930.196 9.80403 702.353C-32.5489 475.686 69.804 232.157 261.177 103.922C523.53 -76.4704 887.059 -16.4704 1074.9 241.569C1076.08 242.745 1075.69 244.706 1074.12 245.883C1072.94 247.059 1070.98 246.667 1069.8 245.098C1043.92 211.765 1014.51 181.569 982.353 154.51C929.412 109.412 867.451 74.1179 801.961 50.1963C468.628 -70.588 102.745 130.196 29.804 478.824C-52.5489 869.412 279.608 1229.02 675.686 1175.29C981.177 1136.86 1208.24 854.902 1183.14 548.235C1177.65 474.118 1158.04 400.785 1125.49 333.334C1124.71 332.157 1125.49 330.588 1126.67 329.804C1127.84 329.02 1129.41 329.412 1130.2 330.588Z" fill="black"/>
<path d="M1062.75 1336.47L69.4128 1314.51C130.589 1110.2 164.707 930.196 210.589 902.745C297.648 850.588 376.08 842.353 422.746 838.039C434.511 867.059 479.217 962.353 572.158 1000C661.962 1036.47 715.295 1012.16 723.53 971.765C728.629 945.882 712.55 903.529 704.315 889.804C699.609 885.882 696.472 880 694.903 874.117L691.766 861.176C698.432 859.608 705.099 858.039 711.766 855.686C783.138 868.235 891.374 927.059 914.511 960C942.354 999.608 980.785 1098.82 979.217 1153.33C976.864 1241.96 1062.75 1336.47 1062.75 1336.47Z" fill="white"/>
<path d="M1072.16 1340.78C776.472 1336.47 360.785 1332.16 69.4128 1324.71C63.9226 1324.71 59.6089 1320 59.6089 1314.51C91.3736 1207.45 116.864 1099.61 150.981 992.941C155.295 979.608 160.001 966.666 165.491 953.333C174.903 932.549 184.315 909.412 203.923 895.294C215.295 888.627 227.452 881.96 239.217 876.078C296.079 847.843 359.217 833.333 421.962 828.235C426.668 827.843 430.589 830.588 432.158 834.51C461.962 905.882 516.079 972.157 591.766 996.862C629.021 1009.8 695.295 1020.78 712.942 974.51C718.825 952.157 710.197 928.627 702.354 907.451C700.393 903.137 698.432 898.823 696.472 895.294L698.432 897.647C690.982 891.372 686.276 880.784 684.707 871.372L682.746 863.529C681.57 858.039 685.099 852.549 690.589 851.372C697.256 849.804 703.531 848.235 709.805 846.274C764.707 850.196 877.256 905.882 916.08 945.098C938.825 971.372 951.766 1005.49 964.707 1037.25C974.119 1062.74 982.354 1089.02 987.06 1116.08C989.021 1126.27 990.197 1136.86 990.197 1147.45C989.805 1163.14 990.982 1179.22 995.295 1194.9C1008.24 1243.92 1036.86 1289.02 1069.41 1327.84L1070.2 1328.63L1070.59 1329.02C1070.59 1329.02 1070.2 1328.63 1071.77 1330.2C1072.94 1333.33 1073.33 1338.04 1072.16 1340.78ZM1053.73 1332.55C1053.33 1333.73 1052.55 1335.29 1052.94 1337.25C1052.94 1339.22 1053.73 1340.78 1054.51 1341.96C1055.69 1343.53 1055.3 1342.74 1055.3 1343.14L1054.9 1342.74C1052.16 1338.82 1046.67 1330.98 1043.92 1326.67C1011.77 1276.08 980.001 1220 978.825 1158.43C979.609 1118.04 967.06 1079.22 953.727 1041.96C944.315 1016.86 933.334 992.549 919.217 969.804C915.687 964.313 912.158 958.823 907.452 954.117C893.334 940.392 876.08 929.411 858.825 919.608C812.942 894.117 763.138 872.941 710.982 866.274L715.687 865.882C708.629 868.235 701.57 869.804 694.511 871.372L702.354 859.215C704.707 867.451 705.099 877.255 711.766 882.745C716.08 887.843 718.432 894.51 721.178 900C727.452 914.902 731.766 930.196 734.511 946.274C741.57 984.706 718.825 1016.47 681.178 1025.1C649.413 1032.55 616.079 1025.88 585.883 1016.08C504.707 990.196 445.883 919.215 414.119 842.353L424.315 848.627C362.354 847.843 300.785 860 244.707 886.666C232.55 892.549 220.001 899.215 208.629 906.274C192.55 919.215 184.707 939.608 176.472 958.039C150.981 1022.35 136.079 1089.8 119.217 1156.47C107.452 1203.53 91.7658 1270.2 80.001 1317.65L70.5893 1304.71C354.511 1310.59 765.099 1323.14 1053.73 1332.55Z" fill="black"/>
<path d="M243.531 1334.9C243.531 1334.9 238.433 1207.84 233.334 1184.31" stroke="black" stroke-width="5.1512" stroke-miterlimit="10" stroke-linecap="round" stroke-linejoin="round"/>
<path d="M938.431 1334.9C938.431 1334.9 926.666 1256.08 926.666 1242.35C926.666 1229.02 936.862 1185.1 938.431 1146.67" stroke="black" stroke-width="5.1512" stroke-miterlimit="10" stroke-linecap="round" stroke-linejoin="round"/>
<path d="M359.218 1236.08V1189.41L471.767 1235.29C471.375 1235.29 380.787 1237.65 359.218 1236.08Z" fill="white"/>
<path d="M627.452 1084.31L613.334 1376.86C613.334 1376.86 737.648 1461.57 737.648 1459.22C737.648 1456.86 796.472 1354.12 796.472 1354.12L704.707 1072.55C704.707 1072.55 692.942 1084.71 627.452 1084.31Z" fill="black"/>
<path d="M655.689 990.197C655.689 990.197 601.963 1040.78 594.905 1054.12C587.846 1067.45 625.101 1088.63 625.101 1088.63C625.101 1088.63 685.101 1101.18 712.159 1076.86C712.159 1076.86 727.453 1060 724.316 1043.92C721.571 1028.24 655.689 990.197 655.689 990.197Z" fill="black"/>
<path d="M406.666 800.392C407.058 800 407.451 799.608 407.843 799.216C412.156 794.118 418.431 790.98 425.49 790.196C458.431 786.274 461.96 789.804 469.019 800.784C503.137 854.117 547.451 956.078 656.078 990.588L551.372 1097.25C545.882 1104.31 536.078 1105.49 529.019 1100.39C495.294 1075.29 427.843 998.431 390.588 904.706C382.745 885.098 381.176 863.529 385.098 843.137C384.313 842.353 400 809.804 406.666 800.392Z" fill="white"/>
<path d="M403.921 798.431C409.803 792.941 416.47 788.235 424.705 787.059C435.686 785.882 447.058 783.529 458.431 785.882C470.196 789.412 474.509 802.353 481.176 811.372C510.588 859.608 541.176 908.627 586.274 942.745C602.352 955.686 620.784 965.49 639.607 973.333C646.666 976.078 654.117 978.431 661.176 981.569C667.058 984.314 668.235 992.941 663.137 996.863C634.117 1020.39 606.666 1045.88 579.607 1072.16C573.333 1078.43 558.823 1092.94 553.333 1098.43C547.058 1106.67 534.509 1107.84 526.666 1101.57L522.745 1098.43C509.411 1087.45 497.254 1074.9 485.49 1062.35C443.529 1016.08 408.235 963.529 384.705 905.49C376.47 884.706 374.509 861.176 379.607 839.608C385.49 825.098 393.333 810.588 403.921 798.431ZM411.764 803.921C403.137 816.078 395.686 830.98 389.411 844.706L389.803 843.529C387.451 856.471 387.451 869.804 390.196 882.353C392.549 895.686 398.431 907.451 403.529 919.608C414.117 944.706 427.451 968.627 441.568 991.765C455.686 1014.9 471.764 1037.25 489.803 1058.04C501.96 1072.16 514.902 1085.88 529.803 1097.25C530.98 1098.43 532.156 1098.82 533.725 1099.61C539.215 1101.96 545.882 1100 549.411 1095.29L562.352 1081.96L575.294 1068.24C601.176 1041.18 625.882 1012.94 649.019 983.529L652.941 999.608C624.705 990.98 598.039 975.686 574.902 956.471C529.019 919.216 499.215 867.451 470.98 817.255C467.451 811.765 463.921 804.706 460.392 799.608C458.823 797.255 457.647 796.47 455.294 795.686C446.274 793.333 435.686 794.902 426.274 796.078C420 796.863 414.902 799.608 411.764 803.921Z" fill="black"/>
<path d="M765.49 1058.43C763.137 1071.37 753.725 1083.53 738.039 1067.45L655.294 990.197C655.294 990.197 703.529 944.315 691.764 861.177C707.843 857.648 723.137 852.55 737.254 845.883C737.647 846.668 743.137 857.256 749.411 874.903C762.745 911.374 779.607 978.432 765.49 1058.43Z" fill="white"/>
<path d="M767.844 1058.82C765.491 1077.65 751.373 1085.49 736.864 1070.98L709.021 1045.1L681.177 1019.22L653.334 993.333C651.766 991.765 651.766 989.412 652.942 987.843C674.511 962.745 685.491 928.627 685.491 895.686C685.491 883.921 683.922 872.549 681.962 860.784C681.177 856.078 685.099 851.765 690.197 851.373C705.883 850.98 721.57 849.02 737.256 845.098C737.648 844.706 738.432 845.098 738.432 845.49C769.805 911.372 779.609 987.059 767.844 1058.82ZM763.53 1058.04C772.942 988.235 762.746 915.686 730.197 853.333L729.413 852.157C729.021 851.765 728.628 850.98 728.628 850.98L741.962 854.902C726.668 862.353 710.589 867.451 694.119 870.98L701.962 859.608C704.315 883.921 702.354 908.627 695.295 931.765C687.844 954.902 676.079 976.078 658.432 993.333V987.451C672.55 1000.39 700.393 1026.67 714.119 1039.61L741.57 1065.88C751.374 1076.08 760.785 1072.16 763.53 1058.04Z" fill="black"/>
<path d="M717.644 963.137C709.409 1003.53 656.075 1027.84 566.271 991.372C472.938 953.725 432.546 863.921 422.35 837.255C477.644 733.725 439.213 661.961 439.213 661.961C566.664 650.98 678.036 800 678.036 800L695.291 873.725C696.86 880 699.997 885.49 704.703 889.412C712.938 903.921 722.742 937.255 717.644 963.137Z" fill="white"/>
<path d="M420.391 838.431C427.842 827.059 432.548 813.726 435.685 800.784C441.567 773.726 443.528 746.275 443.92 718.824V708.627C442.744 698.431 439.214 687.843 435.293 678.431C430.195 665.882 448.626 658.039 454.508 670.588C455.293 672.157 455.293 674.902 455.293 676.471C456.469 729.804 458.822 798.431 425.097 842.745C422.744 845.098 418.038 841.569 420.391 838.431Z" fill="black"/>
<path d="M682.35 799.216C688.233 802.745 690.194 807.451 690.978 812.157C693.331 821.569 692.546 831.765 694.899 841.569C696.86 850.981 702.743 860 704.311 869.804C706.272 880 712.154 901.569 714.507 912.157C715.292 914.51 713.723 917.255 710.978 917.647C709.409 918.04 708.233 917.647 707.056 916.863C701.958 912.549 699.605 908.236 696.468 902.745C691.37 893.334 687.841 884.706 684.703 874.118C681.958 864.706 683.135 854.51 680.782 844.706C678.821 835.294 673.331 826.275 671.37 816.471C670.194 811.765 669.801 806.667 673.331 800.785C675.684 798.432 679.605 797.647 682.35 799.216Z" fill="black"/>
<path d="M710.587 902.745C635.685 898.823 574.508 875.294 514.901 769.02C565.097 813.333 624.312 830.196 686.665 838.039L694.901 874.118C696.469 880.392 705.881 898.823 710.587 902.745Z" fill="black"/>
<path d="M707.451 888.235C720.785 913.333 728.628 944.706 720.392 972.549C714.118 992.157 696.079 1006.67 676.471 1012.16C630.981 1024.31 578.432 1005.1 538.039 983.529C488.236 955.686 451.373 909.019 427.843 858.039C426.275 854.117 431.765 850.98 434.118 854.902C442.353 871.372 451.765 887.451 462.353 901.961C472.941 916.863 485.098 930.588 498.824 942.745C538.824 978.823 592.941 1001.18 647.059 1001.18C702.745 999.608 723.922 970.196 710.981 916.078C709.02 907.451 705.883 898.431 701.569 890.98C699.216 887.843 705.098 884.314 707.451 888.235Z" fill="black"/>
<path d="M859.214 417.255C866.273 450.196 842.744 485.49 842.744 573.333C842.744 663.137 826.273 760.784 758.43 828.627C699.999 887.059 632.94 884.706 554.116 823.137C543.136 814.509 504.705 785.49 494.901 775.686C483.528 764.313 477.254 756.078 471.763 747.451C467.057 739.608 468.234 694.117 461.567 683.529C444.312 654.902 440.783 685.882 418.43 660.784C387.45 627.059 350.195 559.215 368.626 439.215C398.43 244.706 552.548 221.961 666.665 243.529C781.567 265.49 840.391 330.588 859.214 417.255Z" fill="white"/>
<path d="M438.038 695.686C429.018 680.784 417.646 667.451 407.058 653.725C396.469 639.216 387.842 623.921 380.783 607.451C340.783 510.588 346.665 383.921 417.646 302.353C466.273 246.667 543.136 228.235 613.724 232.157C684.312 236.47 757.646 254.51 809.803 305.49C839.999 334.902 859.214 374.118 867.842 414.902C870.587 427.843 868.626 441.961 865.489 454.118C856.469 488.235 847.842 520.784 847.057 556.078C847.45 608.627 845.881 662.353 830.587 712.941C819.606 746.667 806.665 780.392 786.273 809.804C765.097 839.608 733.332 863.529 696.861 870.588C623.528 885.49 554.901 839.216 506.273 789.019C504.312 786.667 507.057 783.921 509.41 785.49C537.254 806.667 565.881 826.274 596.861 839.608C686.273 880.784 760.391 842.745 799.606 756.47C832.548 693.725 841.959 625.882 839.214 555.686C839.214 538.039 839.999 520.392 842.352 502.745C844.705 477.255 853.332 451.765 852.94 426.667C846.273 385.882 827.45 346.667 799.214 316.47C732.155 245.49 603.528 224.706 513.332 256.863C407.057 294.51 378.43 401.569 372.548 503.921C368.626 565.098 386.665 625.098 432.94 667.059L451.371 686.274C457.646 694.902 444.312 705.098 438.038 695.686Z" fill="black"/>
<path d="M484.312 570.98C484.312 570.98 472.156 512.157 414.901 519.215C365.489 525.49 348.234 643.921 460.391 676.863" fill="white"/>
<path d="M455.293 625.49C446.273 620.392 439.999 611.765 439.607 601.176C439.999 593.333 441.175 584.314 439.214 576.471C438.038 569.02 430.195 567.059 424.312 567.451C418.038 568.627 414.116 576.471 412.94 582.745C412.94 583.137 412.548 584.314 412.548 584.706C412.156 586.667 409.018 586.667 408.234 584.706C403.136 569.412 414.509 552.549 430.979 554.51C454.116 556.078 457.254 580.392 452.94 598.823C450.587 606.667 453.724 613.725 458.038 620.392L458.822 621.568C460.783 623.921 457.646 627.059 455.293 625.49Z" fill="black"/>
<path d="M769.018 529.412C774.901 557.255 785.881 583.137 799.607 607.451C811.763 637.255 780.391 665.49 752.548 664.313C749.411 664.313 749.018 660 751.763 659.215C769.411 653.725 785.489 641.961 788.234 623.921C789.411 618.431 787.842 613.725 785.097 609.019C772.156 584.706 764.312 556.862 766.273 529.412C766.273 527.451 769.018 527.451 769.018 529.412Z" fill="black"/>
<path d="M482.353 571.372C473.334 548.235 453.726 526.274 427.451 526.666C425.098 526.274 421.177 527.058 418.824 527.058C412.157 527.45 406.667 529.803 401.569 534.509C376.471 559.607 380.785 603.921 401.177 631.764C408.236 641.568 417.255 650.196 427.451 657.254C437.647 664.313 449.02 669.803 461.177 674.509C463.922 675.294 462.745 679.607 460 679.215C433.726 673.725 408.628 660.784 391.373 639.215C364.706 607.058 359.216 553.333 390.981 521.96C398.039 515.686 407.843 510.98 417.647 510.98C420.785 510.98 425.49 510.196 428.628 510.98C445.098 511.764 460.785 520 470.981 532.941C480 543.921 485.098 557.254 486.667 570.588C486.667 572.941 483.138 573.725 482.353 571.372Z" fill="black"/>
<path d="M730.194 701.96C730.587 708.235 725.881 719.215 717.253 727.058C672.939 700 652.939 714.117 652.939 714.117C637.253 690.196 640.783 657.647 678.822 682.353C705.096 699.607 721.567 702.353 730.194 701.96Z" fill="black"/>
<path d="M716.861 727.451C707.449 735.686 693.331 740.784 674.116 732.941C665.096 729.411 658.037 722.352 652.547 714.509C652.939 714.509 672.547 700.392 716.861 727.451Z" fill="white"/>
<path d="M737.645 700.784C737.645 700.784 721.175 709.804 678.822 682.745C628.234 650.196 638.43 718.431 674.116 732.941C711.371 748.235 730.586 714.902 730.194 702.353" stroke="black" stroke-width="3" stroke-miterlimit="10" stroke-linecap="round" stroke-linejoin="round"/>
<path d="M652.941 714.509C652.941 714.509 672.941 700.392 717.255 727.451" stroke="black" stroke-width="3" stroke-miterlimit="10" stroke-linecap="round" stroke-linejoin="round"/>
<path d="M622.746 569.412C613.334 569.02 606.275 561.177 607.06 551.765L607.452 540.785C607.844 531.373 615.687 524.314 625.099 525.099C634.511 525.491 641.57 533.334 640.785 542.746L640.393 553.726C640.001 562.746 632.158 569.804 622.746 569.412Z" fill="black"/>
<path d="M787.843 575.295C779.215 574.903 772.549 567.452 772.941 558.824L773.333 548.628C773.725 540.001 781.176 533.334 789.803 533.726C798.431 534.119 805.098 541.57 804.705 550.197L804.313 560.393C803.921 569.02 796.47 575.687 787.843 575.295Z" fill="black"/>
<path d="M658.04 548.236C645.099 539.608 630.981 533.726 615.295 536.863C610.197 537.647 605.099 539.216 601.962 542.746C600.785 544.314 598.04 543.922 598.04 541.569C598.432 533.726 605.099 528.628 611.373 525.491C623.53 519.216 640.393 520.393 651.373 528.628C655.295 530.981 668.628 545.491 661.569 548.628C660.001 549.412 659.217 549.02 658.04 548.236Z" fill="black"/>
<path d="M770.197 550.197C770.197 533.726 790.589 527.844 803.138 533.726C810.197 536.863 815.295 543.138 817.256 550.589C818.04 552.942 814.511 554.903 812.942 552.942C806.275 545.099 794.903 541.177 785.883 545.883C783.138 547.452 782.746 548.628 781.962 550.197C781.962 558.04 770.589 557.648 770.197 550.197Z" fill="black"/>
<path d="M676.864 483.53C685.099 486.275 693.334 478.824 691.766 469.804C690.981 465.098 689.02 460.392 685.099 456.863C673.334 446.275 624.707 436.863 595.295 450.589C569.413 463.138 639.217 470.981 676.864 483.53Z" fill="black"/>
<path d="M794.12 489.804C787.453 492.157 780.394 485.098 781.571 476.863C781.963 472.549 783.532 468.236 786.669 465.098C796.081 455.687 828.237 448.236 848.63 462.745C866.277 474.902 824.708 478.432 794.12 489.804Z" fill="black"/>
<path d="M890.98 357.254C917.647 334.117 956.863 299.215 916.47 250.588C876.078 201.96 801.568 220.784 801.568 220.784C801.568 220.784 817.255 176.078 773.725 160C721.176 140.784 572.157 198.823 572.157 198.823C561.176 198.431 550.588 198.039 540.784 198.039C412.157 195.294 374.902 276.47 373.333 349.411C373.333 349.411 329.804 363.921 318.823 433.333C315.294 455.686 311.765 484.313 320.392 518.823C343.529 612.941 405.882 678.431 445.49 711.764C460.392 700.784 434.118 685.49 436.078 667.451C350.98 625.882 369.412 525.098 414.902 519.215C449.804 514.902 468.235 535.294 476.863 551.764C480.392 556.47 433.333 294.117 704.706 380C758.431 396.862 813.725 411.764 851.372 384.705C855.686 392.941 858.431 402.745 859.216 417.254C859.216 417.254 924.706 391.764 914.902 365.098C911.765 356.078 890.98 357.254 890.98 357.254Z" fill="black"/>
<path d="M791.766 620C791.766 620 796.472 646.667 827.452 660C835.296 663.138 843.531 658.04 843.531 649.412C843.139 649.412 793.727 623.138 791.766 620Z" fill="black"/>
<path d="M549.413 620.001C549.413 620.001 563.923 652.942 607.452 660.785C650.982 669.02 690.59 637.648 709.021 585.099C709.021 585.099 694.119 633.726 634.511 642.746C575.688 652.55 549.413 620.001 549.413 620.001Z" fill="black"/>
<path d="M717.65 546.667C716.474 602.746 671.376 647.844 616.866 647.844C562.356 647.844 518.827 602.746 518.827 546.667C519.219 490.197 564.317 443.922 619.611 443.922C674.905 443.922 719.219 490.197 717.65 546.667Z" stroke="black" stroke-width="3" stroke-miterlimit="10" stroke-linecap="round" stroke-linejoin="round"/>
<path d="M771.374 533.726C777.649 483.138 810.59 443.53 849.413 443.53C891.374 443.53 923.531 489.804 921.178 546.275C918.825 602.353 883.531 647.451 842.354 647.451C827.06 647.451 813.335 641.569 801.962 630.981" stroke="black" stroke-width="3" stroke-miterlimit="10" stroke-linecap="round" stroke-linejoin="round"/>
<path d="M520.001 535.687H464.315" stroke="black" stroke-width="3" stroke-miterlimit="10" stroke-linecap="round" stroke-linejoin="round"/>
<path d="M718.041 535.687C718.041 535.687 764.707 517.648 770.59 535.687" stroke="black" stroke-width="3" stroke-miterlimit="10" stroke-linecap="round" stroke-linejoin="round"/>
<path d="M1130.2 330.588C1368.24 789.02 949.804 1306.27 450.981 1180C227.059 1124.31 47.0589 930.196 9.80403 702.353C-32.5489 475.686 69.804 232.157 261.177 103.922C523.53 -76.4704 887.059 -16.4704 1074.9 241.569C1076.08 242.745 1075.69 244.706 1074.12 245.883C1072.94 247.059 1070.98 246.667 1069.8 245.098C1043.92 211.765 1014.51 181.569 982.353 154.51C929.412 109.412 867.451 74.1179 801.961 50.1963C468.628 -70.588 102.745 130.196 29.804 478.824C-52.5489 869.412 279.608 1229.02 675.686 1175.29C981.177 1136.86 1208.24 854.902 1183.14 548.235C1177.65 474.118 1158.04 400.785 1125.49 333.334C1124.71 332.157 1125.49 330.588 1126.67 329.804C1127.84 329.02 1129.41 329.412 1130.2 330.588Z" fill="black"/>
</g>
</svg>
