<svg width="1300" height="1300" viewBox="0 0 1300 1300" fill="none" xmlns="http://www.w3.org/2000/svg">
<mask id="mask0_409_3729" style="mask-type:alpha" maskUnits="userSpaceOnUse" x="0" y="0" width="1296" height="1296">
<circle cx="647.869" cy="647.869" r="647.869" fill="#D9D9D9"/>
</mask>
<g mask="url(#mask0_409_3729)">
<path d="M1003.04 1182.75C1000.07 1184.87 996.668 1186.99 993.694 1189.12C990.295 1191.24 987.321 1193.37 983.923 1195.07C980.949 1196.77 978.4 1198.47 975.426 1200.16C975.001 1200.59 974.576 1200.59 974.151 1201.01C964.38 1206.96 954.184 1212.48 943.988 1217.58C941.014 1219.28 937.615 1220.98 934.641 1222.26C934.641 1222.26 934.217 1222.68 933.792 1222.68C930.393 1224.38 926.994 1226.08 923.596 1227.78C916.798 1231.18 909.576 1234.15 902.779 1237.13C899.38 1238.82 895.556 1240.1 892.158 1241.37C888.759 1242.65 884.936 1244.35 881.537 1245.62C878.138 1246.9 874.315 1248.6 870.916 1249.87C870.916 1249.87 870.916 1249.87 870.491 1249.87C867.092 1251.14 863.269 1252.42 859.87 1253.69C852.223 1256.24 844.151 1258.79 836.504 1261.34C833.955 1262.19 830.981 1263.04 828.432 1263.89C820.36 1266.44 812.289 1268.56 804.217 1270.26C801.243 1271.11 798.269 1271.54 794.87 1272.39C787.223 1274.09 779.151 1275.79 771.504 1277.48C769.805 1277.91 768.53 1277.91 766.831 1278.33C764.282 1278.76 761.308 1279.18 758.759 1279.61C754.936 1280.03 751.537 1280.88 747.713 1281.31C746.014 1281.73 744.315 1281.73 742.615 1282.16C740.491 1282.58 737.942 1283.01 735.393 1283.01C728.596 1283.86 721.374 1284.71 714.576 1285.56C712.452 1285.98 709.903 1285.98 707.779 1286.41H707.354C704.38 1286.83 701.406 1286.83 698.432 1287.26C695.458 1287.68 692.485 1287.68 689.511 1287.68C687.811 1287.68 685.687 1288.11 683.988 1288.11C680.589 1288.11 677.615 1288.53 674.642 1288.53C670.393 1288.53 666.57 1288.96 662.321 1288.96C658.073 1288.96 654.249 1288.96 650.001 1288.96C647.027 1288.96 644.053 1288.96 641.079 1288.96C461.798 1286.41 300.785 1210.36 185.655 1089.71C185.655 1089.71 185.655 1089.28 185.23 1089.28C172.485 1077.81 183.53 1016.64 234.936 977.975C299.511 929.119 454.151 898.531 454.151 898.531C454.151 898.531 514.053 888.759 736.243 935.066C866.243 962.256 965.23 1001.77 1020.46 1108.82C1031.93 1130.92 1043.4 1164.9 1003.04 1182.75Z" fill="white"/>
<path d="M737.517 930.393C819.086 946.961 906.177 964.805 973.301 1018.76C995.818 1037.03 1010.69 1063.79 1023.01 1089.71C1028.96 1102.45 1034.9 1115.62 1039.58 1129.64C1042.12 1138.99 1045.95 1149.61 1043.82 1160.65C1043.4 1163.63 1040.85 1167.45 1038.73 1169.58C1028.96 1179.35 1018.33 1185.29 1007.71 1192.94C945.262 1236.28 873.465 1266.86 799.118 1283.01C633.432 1319.12 454.151 1291.08 308.432 1203.99C260.001 1174.67 215.393 1138.99 177.158 1096.93C172.909 1091.83 172.909 1083.33 172.909 1077.81C173.334 1065.07 176.733 1052.75 180.981 1041.28C191.177 1014.94 204.347 988.595 226.863 970.327C243.007 959.282 260.426 949.935 278.269 942.288C334.347 918.497 393.399 901.929 454.151 895.131C459.249 894.706 460.099 901.929 455.001 902.778C396.798 914.674 339.02 932.517 285.066 956.733C265.524 966.504 244.707 975.001 228.988 990.295C214.118 1006.44 203.497 1026.41 195.001 1046.8C189.478 1059.12 185.654 1078.66 187.354 1088.43C214.118 1120.29 245.556 1148.33 279.543 1172.55C465.622 1302.55 748.138 1311.05 946.112 1202.71C963.955 1192.94 981.373 1181.9 997.942 1170.43C1006.01 1164.9 1014.51 1160.23 1020.88 1153.86C1021.31 1153.43 1020.88 1153.86 1020.88 1154.28C1020.88 1154.71 1020.46 1155.13 1020.46 1155.13C1020.88 1150.03 1019.18 1143.24 1017.06 1136.44C1009.41 1111.8 997.092 1085.88 983.922 1063.37C963.105 1029.8 927.844 1008.56 892.158 991.569C867.517 980.099 841.602 971.177 815.262 962.68C788.922 954.184 762.158 946.961 735.393 940.589C728.596 938.889 730.72 929.118 737.517 930.393Z" fill="black"/>
<path d="M1061.24 1243.07C1053.17 1180.2 1017.48 1074.41 995.815 1045.95C972.025 1014.93 962.253 1005.16 882.809 978.398C878.561 957.156 862.842 903.627 844.149 881.11C815.685 838.202 737.94 828.431 714.574 833.529C714.574 833.529 588.822 789.346 443.953 789.346C398.07 799.542 344.966 820.359 316.077 864.117C296.534 893.006 318.626 902.352 308.855 928.692C306.306 935.49 246.829 969.476 222.613 989.869C211.567 998.79 199.247 1021.31 190.75 1050.62C173.757 1110.52 192.025 1193.37 170.783 1265.59C129.998 1404.93 47.1553 1446.57 47.1553 1446.57H1144.93C1144.08 1446.14 1078.66 1375.62 1061.24 1243.07Z" fill="white"/>
<path d="M1054.87 1243.92C1046.37 1188.27 1029.38 1133.04 1007.71 1081.21C997.091 1056.14 980.948 1031.93 958.431 1017.06C946.961 1009.84 934.216 1004.31 921.046 998.792C907.876 993.693 894.281 989.02 881.111 984.347C878.987 983.497 877.287 981.798 876.863 979.674C875.163 971.177 873.039 963.105 870.49 954.608C859.444 920.197 847.549 881.961 815.261 861.994C790.621 847.125 761.307 839.903 732.843 838.628C727.32 838.628 721.372 838.628 716.274 839.478H714.575C714.15 839.478 713.301 839.478 712.876 839.053C692.484 829.282 669.967 823.334 647.876 817.386C581.601 802.092 512.353 795.72 444.379 795.295C402.745 805.066 344.542 828.007 319.052 870.491C314.804 877.288 312.68 884.086 313.529 891.733C314.379 900.229 317.353 909.576 315.229 918.497C314.379 922.321 313.529 926.569 311.83 929.968C308.431 934.641 302.908 937.615 298.66 940.589C276.569 955.033 254.052 967.778 232.81 982.648C225.588 987.746 218.791 992.419 213.693 999.641C198.823 1020.88 189.902 1046.37 186.078 1071.86C179.281 1123.69 186.078 1176.37 179.281 1228.2C171.634 1280.03 151.667 1330.16 123.627 1374.35C104.085 1404.09 80.294 1431.7 50.1306 1450.82L47.1568 1438.92H1144.93L1140.26 1449.54C1127.52 1435.1 1117.32 1419.38 1107.97 1402.81C1079.08 1354.38 1062.09 1299.58 1054.87 1243.92ZM1067.61 1242.22C1072.29 1278.33 1081.21 1314.02 1094.8 1348.01C1108.4 1381.57 1125.39 1414.28 1149.18 1441.9C1152.58 1445.72 1149.61 1452.94 1144.51 1452.52H46.7319C43.3332 1452.52 40.3594 1449.54 40.3594 1446.14C40.3594 1443.6 41.6339 1441.47 43.7581 1440.62C50.5555 1436.8 57.3528 1431.28 63.7254 1425.75C119.379 1375.62 154.216 1301.28 165.686 1227.35C175.457 1158.11 157.189 1083.33 188.203 1017.48C195.425 1002.19 204.346 986.046 218.791 976.275C245.131 956.733 274.019 942.288 299.935 923.171C300.359 923.171 300.359 922.746 300.359 922.746C299.935 923.171 299.51 924.02 299.51 924.445C302.059 918.497 302.908 913.399 302.059 906.602C300.784 898.105 298.66 886.635 301.634 877.713C302.908 872.615 305.457 867.942 308.006 864.118C338.595 818.236 392.549 797.844 443.954 786.373C458.399 786.798 473.268 784.249 487.712 784.249C507.68 784.249 528.072 787.223 548.039 789.772C605.392 798.693 660.621 813.988 717.124 826.308L713.301 825.883C726.47 823.334 738.791 824.608 751.536 826.308C833.104 838.628 860.719 874.314 882.81 950.36C885.359 958.857 887.484 967.354 889.608 976.275L885.359 971.177C926.144 985.622 972.026 998.791 997.941 1036.6C1007.29 1048.07 1014.08 1061.67 1020.03 1075.26C1041.7 1129.64 1058.69 1184.45 1067.61 1242.22Z" fill="black"/>
<path d="M391.7 963.531C423.138 1030.66 471.995 1087.58 530.197 1132.62C532.321 1134.32 530.197 1137.71 527.648 1136.44C475.818 1111.8 432.06 1069.74 406.145 1018.76C397.648 1001.77 390.426 983.499 387.877 964.381C387.027 962.257 390.426 961.407 391.7 963.531Z" fill="black"/>
<path d="M889.184 977.55C890.459 1048.5 861.57 1121.14 806.341 1167.03C805.067 1168.3 803.367 1167.88 802.093 1166.6C800.818 1165.33 801.243 1163.63 802.518 1162.35C814.838 1150.46 827.158 1138.14 836.505 1123.69C856.047 1095.65 867.942 1062.52 873.465 1028.96C876.014 1012.39 877.714 994.543 876.439 977.975C876.014 969.903 888.759 969.053 889.184 977.55Z" fill="black"/>
<path d="M638.954 1146.21C629.183 1180.62 621.111 1218.01 625.785 1253.69C627.059 1261.77 614.739 1263.89 613.039 1255.39C610.915 1235.85 613.464 1216.73 616.863 1198.04C620.687 1179.35 625.36 1161.5 631.732 1143.66C633.432 1139.41 640.654 1141.54 638.954 1146.21Z" fill="black"/>
<path d="M774.052 1139.84C788.071 1170 797.843 1201.44 805.49 1233.3C806.339 1236.7 804.215 1240.1 800.817 1240.95C797.418 1241.8 794.019 1239.67 793.169 1236.27C788.921 1212.48 783.398 1188.69 775.751 1165.33C773.202 1157.68 770.653 1150.03 767.679 1142.39C765.98 1138.56 771.928 1135.59 774.052 1139.84Z" fill="black"/>
<path d="M317.778 926.994C333.497 1012.81 393.824 1085.46 466.471 1131.76C491.111 1147.48 517.451 1161.08 544.641 1172.12C546.34 1172.97 547.19 1174.67 546.34 1176.37C545.915 1178.07 543.791 1178.92 542.516 1178.07C514.477 1167.88 487.288 1155.13 461.798 1139.84C409.967 1109.25 364.51 1066.76 333.922 1014.93C318.203 988.17 305.883 960.131 299.935 929.543C299.085 924.445 302.484 919.772 307.582 918.922C312.255 917.647 317.353 921.471 317.778 926.994Z" fill="black"/>
<path d="M613.462 1263.04C601.566 1261.77 593.07 1250.72 595.619 1238.82L600.292 1216.31C601.991 1207.39 610.488 1201.01 619.41 1202.29C628.331 1203.14 635.553 1210.79 635.553 1220.13V1243.07C635.978 1254.97 625.782 1264.31 613.462 1263.04Z" fill="black"/>
<path d="M809.313 1247.32C797.843 1251.57 785.522 1244.77 782.548 1232.88L777.026 1210.36C774.901 1201.44 779.575 1192.52 788.496 1189.12C796.993 1186.14 806.764 1189.97 810.588 1198.04L820.784 1218.86C825.882 1230.33 820.784 1243.5 809.313 1247.32Z" fill="black"/>
<path d="M1005.59 1234.58C1005.59 1234.58 1029.38 1367.97 1020.03 1446.14" stroke="black" stroke-width="5.1257" stroke-miterlimit="10" stroke-linecap="round" stroke-linejoin="round"/>
<path d="M450.75 911.7C444.802 894.707 442.253 877.289 443.528 859.446C443.528 857.746 444.802 856.896 446.501 856.896C447.776 856.896 449.051 858.171 449.051 859.446C450.325 875.589 454.998 892.158 462.645 906.178C466.469 914.674 453.724 920.197 450.75 911.7Z" fill="black"/>
<path d="M737.94 934.216C726.044 907.452 696.73 893.857 670.815 884.51C654.672 879.412 636.828 875.589 619.835 873.04C578.626 866.667 520.423 856.896 479.214 852.648C478.789 852.648 478.789 851.798 479.214 851.798C491.11 850.523 503.005 850.523 514.9 850.523C550.587 851.373 586.273 855.197 621.534 860.72C656.796 866.242 694.606 876.863 721.371 902.354C729.868 911.275 737.515 921.471 739.639 933.791C740.064 935.066 738.364 935.491 737.94 934.216Z" fill="black"/>
<path d="M777.448 1043.4C768.526 1087.16 710.748 1113.5 613.461 1073.99C512.35 1033.2 468.592 935.914 457.546 907.026C517.448 794.869 475.814 717.124 475.814 717.124C613.886 705.228 734.539 866.666 734.539 866.666L753.232 946.535C754.932 953.333 758.33 959.28 763.428 963.529C772.35 979.248 782.971 1015.36 777.448 1043.4Z" fill="white"/>
<path d="M455.423 908.3C463.495 895.979 468.593 881.535 471.992 867.515C478.364 838.202 480.489 808.463 480.913 778.724V767.679C479.639 756.633 475.815 745.162 471.567 734.966C466.044 721.372 486.011 712.875 492.384 726.47C493.234 728.169 493.234 731.143 493.234 732.842C494.508 790.62 497.057 864.966 460.521 912.973C457.972 915.522 452.874 911.698 455.423 908.3Z" fill="black"/>
<path d="M739.212 865.817C745.585 869.64 747.709 874.738 748.559 879.836C751.108 890.032 750.258 901.078 752.807 911.699C754.931 921.895 761.304 931.666 763.003 942.287C765.128 953.333 771.5 976.699 774.049 988.17C774.899 990.719 773.199 993.693 770.226 994.117C768.526 994.542 767.252 994.117 765.977 993.268C760.454 988.595 757.905 983.921 754.507 977.974C748.984 967.778 745.16 958.431 741.762 946.96C738.788 936.764 740.062 925.719 737.513 915.098C735.389 904.902 729.441 895.13 727.317 884.51C726.043 879.411 725.618 873.889 729.441 867.516C731.99 864.967 736.239 864.117 739.212 865.817Z" fill="black"/>
<path d="M769.802 977.973C688.658 973.724 622.384 948.234 557.809 833.104C612.188 881.11 676.338 899.378 743.887 907.875L752.809 946.96C754.508 953.757 764.704 973.724 769.802 977.973Z" fill="black"/>
<path d="M766.405 962.255C780.85 989.444 789.347 1023.43 780.425 1053.59C773.628 1074.84 754.085 1090.56 732.843 1096.5C683.562 1109.67 626.634 1088.86 582.876 1065.49C528.922 1035.33 488.987 984.771 463.497 929.542C461.798 925.294 467.745 921.895 470.294 926.144C479.216 943.987 489.412 961.405 500.882 977.124C512.353 993.268 525.523 1008.14 540.392 1021.31C583.726 1060.39 642.353 1084.61 700.981 1084.61C761.307 1082.91 784.249 1051.05 770.229 992.418C768.105 983.072 764.706 973.301 760.033 965.229C757.484 961.83 763.856 958.006 766.405 962.255Z" fill="black"/>
<path d="M930.816 452.026C938.463 487.712 912.973 525.947 912.973 621.111C912.973 718.398 895.129 824.183 821.633 897.679C758.332 960.98 685.685 958.431 600.293 891.731C588.397 882.385 546.763 850.947 536.142 840.326C523.822 828.006 517.025 819.084 511.077 809.738C505.979 801.241 507.254 751.96 500.031 740.49C481.339 709.477 477.515 743.039 453.299 715.849C419.737 679.313 379.378 605.817 399.345 475.817C431.633 265.098 598.593 240.457 722.221 263.823C846.698 287.614 910.424 358.137 930.816 452.026Z" fill="white"/>
<path d="M474.541 753.659C464.77 737.516 452.449 723.071 440.979 708.202C429.508 692.483 420.162 675.914 412.515 658.071C369.181 553.137 375.554 415.914 452.449 327.548C505.129 267.222 588.397 247.254 664.868 251.503C741.338 256.176 820.783 275.718 877.286 330.947C909.998 362.81 930.815 405.294 940.162 449.477C943.136 463.496 941.011 478.79 937.613 491.96C927.842 528.921 918.495 564.182 917.645 602.418C918.07 659.346 916.371 717.548 899.802 772.352C887.907 808.888 873.887 845.424 851.796 877.287C828.855 909.575 794.443 935.49 754.933 943.137C675.489 959.28 601.142 909.15 548.462 854.771C546.338 852.222 549.312 849.248 551.861 850.947C582.024 873.888 613.038 895.13 646.6 909.575C743.462 954.182 823.757 912.973 866.24 819.509C901.926 751.535 912.123 678.039 909.149 601.993C909.149 582.875 909.998 563.758 912.547 544.64C915.096 517.026 924.443 489.411 924.018 462.222C916.796 418.039 896.404 375.555 865.815 342.843C793.168 265.947 653.822 243.431 556.109 278.267C440.979 319.052 409.966 435.032 403.593 545.914C399.345 612.189 418.887 677.189 469.018 722.646L488.985 743.463C495.783 752.81 481.338 763.856 474.541 753.659Z" fill="black"/>
<path d="M524.672 618.561C524.672 618.561 511.502 554.836 449.476 562.483C395.946 569.28 377.254 697.581 498.757 733.267" fill="white"/>
<path d="M493.234 677.613C483.463 672.091 476.666 662.744 476.241 651.274C476.666 642.777 477.94 633.006 475.816 624.509C474.541 616.437 466.045 614.313 459.672 614.738C452.875 616.012 448.626 624.509 447.352 631.306C447.352 631.731 446.927 633.006 446.927 633.43C446.502 635.555 443.103 635.555 442.254 633.43C436.731 616.862 449.051 598.594 466.894 600.718C491.96 602.417 495.358 628.757 490.685 648.725C488.136 657.221 491.535 664.868 496.208 672.091L497.058 673.365C499.182 675.914 495.783 679.313 493.234 677.613Z" fill="black"/>
<path d="M833.103 573.529C839.476 603.692 851.371 631.731 866.241 658.071C879.411 690.359 845.424 720.947 815.26 719.672C811.862 719.672 811.437 714.999 814.411 714.15C833.528 708.202 850.947 695.457 853.92 675.914C855.195 669.967 853.496 664.869 850.522 659.77C836.502 633.431 828.005 603.267 830.13 573.529C830.13 571.405 833.103 571.405 833.103 573.529Z" fill="black"/>
<path d="M522.549 618.986C512.777 593.921 491.536 570.13 463.072 570.555C460.523 570.13 456.274 570.979 453.725 570.979C446.503 571.404 440.555 573.953 435.032 579.051C407.843 606.241 412.516 654.248 434.608 684.411C442.255 695.032 452.026 704.378 463.072 712.025C474.117 719.672 486.438 725.62 499.608 730.718C502.581 731.568 501.307 736.241 498.333 735.816C469.869 729.868 442.679 715.849 423.987 692.483C395.098 657.646 389.15 599.444 423.562 565.457C431.209 558.659 441.83 553.561 452.451 553.561C455.849 553.561 460.947 552.712 464.346 553.561C482.189 554.411 499.183 563.332 510.228 577.352C520 589.247 525.523 603.692 527.222 618.136C527.222 620.685 523.398 621.535 522.549 618.986Z" fill="black"/>
<path d="M791.044 760.458C791.469 767.255 786.371 779.15 777.024 787.647C729.018 758.333 707.351 773.628 707.351 773.628C690.358 747.713 694.181 712.451 735.39 739.216C763.854 757.909 781.697 760.882 791.044 760.458Z" fill="black"/>
<path d="M776.599 788.072C766.403 796.994 751.109 802.516 730.292 794.02C720.521 790.196 712.873 782.549 706.926 774.052C707.351 774.052 728.592 758.758 776.599 788.072Z" fill="white"/>
<path d="M799.116 759.183C799.116 759.183 781.273 768.954 735.39 739.641C680.586 704.379 691.632 778.301 730.292 794.02C770.652 810.588 791.469 774.477 791.044 760.883" stroke="black" stroke-width="3" stroke-miterlimit="10" stroke-linecap="round" stroke-linejoin="round"/>
<path d="M707.354 774.052C707.354 774.052 729.02 758.758 777.027 788.072" stroke="black" stroke-width="3" stroke-miterlimit="10" stroke-linecap="round" stroke-linejoin="round"/>
<path d="M740.065 518.3C749.411 517.451 754.084 506.405 748.986 497.908C746.012 493.66 742.189 489.836 736.666 487.712C720.522 482.614 667.842 494.085 644.901 520.424C624.509 544.64 697.581 522.124 740.065 518.3Z" fill="black"/>
<path d="M852.223 525.097C845.001 522.973 842.877 512.352 848.824 505.555C851.798 502.156 856.047 499.182 860.72 498.333C875.164 495.784 908.301 508.953 917.648 534.019C926.145 555.686 886.635 533.594 852.223 525.097Z" fill="black"/>
<path d="M674.642 616.863C664.446 616.438 656.799 607.941 657.648 597.745L658.073 585.85C658.498 575.654 666.995 568.007 677.191 568.856C687.387 569.281 695.034 577.778 694.184 587.974L693.76 599.87C693.335 609.641 684.838 617.288 674.642 616.863Z" fill="black"/>
<path d="M853.496 623.235C844.149 622.81 836.927 614.738 837.352 605.392L837.777 594.346C838.201 585 846.273 577.778 855.62 578.202C864.966 578.627 872.188 586.699 871.764 596.046L871.339 607.091C870.914 616.438 862.842 623.66 853.496 623.235Z" fill="black"/>
<path d="M712.875 593.921C698.855 584.575 683.561 578.202 666.568 581.601C661.045 582.45 655.522 584.15 652.123 587.973C650.849 589.673 647.875 589.248 647.875 586.699C648.3 578.202 655.522 572.679 662.319 569.28C675.489 562.483 693.757 563.758 705.653 572.679C709.901 575.228 724.346 590.947 716.699 594.346C714.999 595.195 714.15 594.771 712.875 593.921Z" fill="black"/>
<path d="M834.377 596.046C834.377 578.203 856.469 571.83 870.063 578.203C877.71 581.602 883.233 588.399 885.357 596.471C886.207 599.02 882.384 601.144 880.684 599.02C873.462 590.523 861.142 586.275 851.37 591.373C848.397 593.072 847.972 594.347 847.122 596.046C847.122 604.543 834.802 604.118 834.377 596.046Z" fill="black"/>
<path d="M932 573.952C932.425 571.828 932.85 569.704 932.85 567.58C937.098 540.815 940.072 516.174 941.771 492.808C945.17 445.227 936.249 359.41 867.85 308.005C861.902 303.331 855.53 299.083 848.307 295.259C842.36 291.861 835.987 288.887 829.615 285.913C773.961 262.122 684.32 233.658 595.53 248.952C561.543 254.475 527.556 266.795 495.693 287.612C495.268 287.612 495.268 288.037 495.268 288.037C417.948 339.018 390.758 419.737 376.314 495.782C371.641 519.998 368.242 544.214 365.268 566.305C363.569 577.776 361.869 588.822 360.17 599.018C353.797 637.678 332.556 672.089 310.039 699.279C308.765 700.554 307.49 702.253 306.216 703.527C287.948 724.344 269.68 740.913 256.935 750.684C256.085 751.109 255.235 751.959 254.811 752.384C282.85 840.75 389.909 907.024 488.896 926.991C503.34 863.691 513.111 799.54 500.791 733.691C497.392 732.416 495.693 731.142 495.693 730.292C378.438 693.331 397.131 567.58 450.235 560.782C469.353 558.233 483.373 562.906 494.418 569.704C509.288 580.75 525.431 608.364 525.431 616.436C526.281 597.743 534.353 571.828 544.124 570.978C554.32 570.129 564.516 568.005 574.288 564.181C623.144 547.188 667.752 501.305 707.262 460.521C761.641 404.442 805.824 356.861 837.262 404.018C838.961 406.567 840.66 409.116 841.935 411.665C879.32 410.815 896.739 432.482 905.66 454.998C905.66 454.998 905.66 454.998 905.66 455.423C912.883 474.54 913.732 494.083 914.582 499.181C914.582 500.031 914.582 500.456 915.007 500.456C914.157 517.449 912.033 546.338 911.608 583.723C911.608 600.717 913.307 634.704 912.033 654.246C911.608 660.194 911.183 666.142 910.758 671.665C910.334 674.639 910.334 677.612 909.909 680.161C909.484 682.71 909.484 685.684 909.059 688.658C908.634 692.906 908.209 697.155 907.785 701.828C907.36 705.652 906.935 709.475 906.51 713.299V713.723C906.085 716.697 905.66 719.246 905.235 721.795C898.863 755.782 889.092 791.893 875.072 813.56C847.033 857.318 824.941 894.279 784.582 912.972C744.647 931.24 699.19 935.063 699.19 935.063C699.19 935.063 711.935 943.135 742.098 944.835C771.837 946.534 793.928 937.612 816.02 941.436C863.177 949.508 946.02 949.508 946.02 949.508C1008.05 786.371 903.111 778.723 932 573.952Z" fill="black"/>
<path d="M601.144 700.979C613.039 694.607 624.51 687.81 637.68 684.411C638.954 684.411 639.804 683.986 642.353 684.836C651.274 691.633 625.359 708.627 620.686 712.875C621.961 711.176 621.536 708.202 619.412 707.352C618.987 707.352 618.987 706.927 618.562 706.927C617.712 706.927 617.712 706.927 617.712 706.927C628.333 703.104 638.954 698.855 649.15 693.757C655.098 691.208 663.17 685.685 669.542 685.261C672.091 685.261 675.065 687.81 674.64 690.359C674.216 693.757 673.366 695.032 672.516 697.156C671.667 698.855 669.967 701.404 669.542 703.104C669.542 703.529 669.118 702.679 669.118 702.679C669.118 703.104 671.667 703.104 672.091 702.679C678.889 701.829 686.111 699.28 692.908 696.731C694.183 696.306 695.033 698.006 693.758 698.855C686.536 703.529 678.889 708.627 669.542 709.476C663.595 709.901 660.621 704.378 662.745 699.28C663.595 696.306 665.719 692.908 666.569 690.359C666.569 691.208 667.418 692.483 668.268 692.908C669.118 693.332 669.542 692.908 669.118 693.332C664.869 694.607 656.372 699.28 652.549 700.979C641.503 706.078 630.882 710.751 618.987 714.149C618.137 714.149 618.137 714.574 616.863 714.149C613.464 713.725 612.614 709.476 615.163 707.352C620.261 703.104 626.209 699.705 630.882 695.457C633.431 693.332 636.405 690.359 638.104 687.81C638.104 688.234 638.529 689.084 638.954 689.509C635.131 689.934 627.484 692.058 622.81 694.182C616.013 696.731 608.791 699.705 601.993 702.679C601.144 703.528 599.869 701.404 601.144 700.979Z" fill="black"/>
<path d="M876.437 700.98C880.261 696.731 896.405 676.339 900.653 686.96C900.653 687.81 900.653 688.66 900.653 689.084C898.954 697.581 893.431 704.803 889.183 712.026C890.032 709.901 888.333 706.928 886.209 706.503C885.359 706.503 884.934 706.503 884.509 706.503C884.084 706.503 884.509 706.503 884.934 706.078C893.431 700.555 899.803 693.758 908.3 687.81C910 686.96 912.124 685.686 914.248 686.96C916.372 688.66 915.947 691.209 915.098 692.908C914.248 695.032 913.398 696.731 912.549 698.856C912.124 699.281 911.699 699.705 910.849 699.281C910.424 699.281 910.424 698.856 910.424 698.431C910.424 697.581 910.424 692.058 910.424 691.209C910.424 690.784 910 690.359 910.424 691.209C910.424 691.633 911.274 692.483 912.124 692.483C912.549 692.483 913.398 692.483 913.398 692.483C906.176 700.98 897.679 709.052 887.908 714.575C884.934 715.849 881.535 713.3 881.96 709.901C881.96 709.477 882.385 708.627 882.81 708.202C885.784 703.954 889.183 699.705 891.732 695.457C893.006 693.333 894.705 690.359 895.13 688.235C895.13 689.084 896.83 690.359 897.254 689.934C890.457 692.483 884.509 698.006 878.562 702.254C876.862 703.529 875.588 701.83 876.437 700.98Z" fill="black"/>
<path d="M1224.38 358.137C1482.25 854.771 1028.95 1415.13 488.562 1278.33C245.98 1218.01 50.9803 1007.71 10.6208 760.882C-35.2615 515.327 75.6208 251.503 282.941 112.582C567.157 -82.8433 960.98 -17.8433 1164.48 261.699C1165.75 262.974 1165.33 265.098 1163.63 266.372C1162.35 267.647 1160.23 267.222 1158.95 265.523C1130.91 229.412 1099.05 196.699 1064.22 167.385C1006.86 118.529 939.738 80.2939 868.791 54.3789C507.68 -76.4708 111.307 141.046 32.2875 518.725C-56.9282 941.863 302.908 1331.44 731.993 1273.24C1062.94 1231.6 1308.92 926.144 1281.73 593.921C1275.78 513.627 1254.54 434.183 1219.28 361.111C1218.43 359.836 1219.28 358.137 1220.56 357.287C1221.83 356.438 1223.53 356.863 1224.38 358.137Z" fill="black"/>
</g>
</svg>
